<?xml version="1.0" encoding="UTF-8" standalone="no"?>
<!DOCTYPE svg PUBLIC "-//W3C//DTD SVG 1.1//EN"
 "http://www.w3.org/Graphics/SVG/1.1/DTD/svg11.dtd">
<!-- Generated by graphviz version 2.38.0 (20140413.2041)
 -->
<!-- Title: untitled Pages: 1 -->
<svg width="1030pt" height="1086pt"
 viewBox="0.00 0.00 1030.00 1086.00" xmlns="http://www.w3.org/2000/svg" xmlns:xlink="http://www.w3.org/1999/xlink">
<g id="graph0" class="graph" transform="scale(1 1) rotate(0) translate(4 1082)">
<title>untitled</title>
<polygon fill="white" stroke="none" points="-4,4 -4,-1082 1026,-1082 1026,4 -4,4"/>
<g id="clust1" class="cluster"><title>cluster_0</title>
<polygon fill="none" stroke="black" stroke-width="0" points="8,-8 8,-1070 1014,-1070 1014,-8 8,-8"/>
</g>
<g id="clust2" class="cluster"><title>cluster_2</title>
<polygon fill="none" stroke="black" stroke-dasharray="1,5" points="18,-16 18,-1018 1006,-1018 1006,-16 18,-16"/>
</g>
<g id="clust3" class="cluster"><title>cluster_4</title>
<polygon fill="none" stroke="black" stroke-dasharray="1,5" points="428,-24 428,-936 998,-936 998,-24 428,-24"/>
</g>
<g id="clust4" class="cluster"><title>cluster_5</title>
<polygon fill="none" stroke="black" stroke-dasharray="1,5" points="436,-32 436,-928 858,-928 858,-32 436,-32"/>
</g>
<g id="clust5" class="cluster"><title>cluster_6</title>
<polygon fill="none" stroke="black" stroke-dasharray="1,5" points="444,-40 444,-920 752,-920 752,-40 444,-40"/>
</g>
<g id="clust6" class="cluster"><title>cluster_7</title>
<polygon fill="none" stroke="black" stroke-dasharray="1,5" points="452,-48 452,-912 666,-912 666,-48 452,-48"/>
<text text-anchor="middle" x="559" y="-896.8" font-family="Courier,monospace" font-size="14.00">Web</text>
<text text-anchor="middle" x="559" y="-882.8" font-family="Courier,monospace" font-size="14.00">interface</text>
</g>
<g id="clust7" class="cluster"><title>cluster_10</title>
<polygon fill="none" stroke="black" stroke-dasharray="1,5" points="460,-56 460,-752 658,-752 658,-56 460,-56"/>
<text text-anchor="middle" x="559" y="-736.8" font-family="Courier,monospace" font-size="14.00">Render</text>
<text text-anchor="middle" x="559" y="-722.8" font-family="Courier,monospace" font-size="14.00">VMs list</text>
<text text-anchor="middle" x="559" y="-708.8" font-family="Courier,monospace" font-size="14.00">page</text>
</g>
<g id="clust8" class="cluster"><title>cluster_13</title>
<polygon fill="none" stroke="black" points="468,-64 468,-538 650,-538 650,-64 468,-64"/>
<text text-anchor="middle" x="559" y="-522.8" font-family="Courier,monospace" font-size="14.00">Render</text>
<text text-anchor="middle" x="559" y="-508.8" font-family="Courier,monospace" font-size="14.00">VMs</text>
<text text-anchor="middle" x="559" y="-494.8" font-family="Courier,monospace" font-size="14.00">list</text>
</g>
<g id="clust9" class="cluster"><title>cluster_14</title>
<polygon fill="none" stroke="black" stroke-dasharray="5,2" points="476,-150 476,-480 642,-480 642,-150 476,-150"/>
<text text-anchor="middle" x="559" y="-464.8" font-family="Courier,monospace" font-size="14.00">For each</text>
<text text-anchor="middle" x="559" y="-450.8" font-family="Courier,monospace" font-size="14.00">accessible</text>
<text text-anchor="middle" x="559" y="-436.8" font-family="Courier,monospace" font-size="14.00">VM</text>
</g>
<g id="clust10" class="cluster"><title>cluster_19</title>
<polygon fill="none" stroke="black" stroke-dasharray="1,5" points="674,-371 674,-423 744,-423 744,-371 674,-371"/>
</g>
<g id="clust11" class="cluster"><title>cluster_21</title>
<polygon fill="none" stroke="black" stroke-dasharray="1,5" points="760,-546 760,-598 850,-598 850,-546 760,-546"/>
</g>
<g id="clust12" class="cluster"><title>cluster_23</title>
<polygon fill="none" stroke="black" stroke-dasharray="1,5" points="866,-264 866,-724 990,-724 990,-264 866,-264"/>
<text text-anchor="middle" x="928" y="-708.8" font-family="Courier,monospace" font-size="14.00">AdminUI</text>
</g>
<g id="clust13" class="cluster"><title>cluster_28</title>
<polygon fill="none" stroke="black" stroke-dasharray="1,5" points="26,-141 26,-636 420,-636 420,-141 26,-141"/>
</g>
<g id="clust14" class="cluster"><title>cluster_29</title>
<polygon fill="none" stroke="black" stroke-dasharray="1,5" points="292,-264 292,-627 400,-627 400,-264 292,-264"/>
<text text-anchor="middle" x="346" y="-611.8" font-family="Courier,monospace" font-size="14.00">websocket</text>
</g>
<g id="clust15" class="cluster"><title>cluster_33</title>
<polygon fill="none" stroke="black" stroke-dasharray="1,5" points="34,-149 34,-628 284,-628 284,-149 34,-149"/>
<text text-anchor="middle" x="159" y="-612.8" font-family="Courier,monospace" font-size="14.00">SlidingKeys</text>
</g>
<g id="clust16" class="cluster"><title>cluster_34</title>
<polygon fill="none" stroke="black" stroke-width="0" stroke-dasharray="1,5" points="42,-157 42,-598 194,-598 194,-157 42,-157"/>
</g>
<g id="clust17" class="cluster"><title>cluster_40</title>
<polygon fill="none" stroke="black" stroke-dasharray="1,5" points="308,-824 308,-1010 408,-1010 408,-824 308,-824"/>
<text text-anchor="middle" x="358" y="-994.8" font-family="Courier,monospace" font-size="14.00">HTTP</text>
</g>
<!-- node1 -->
<g id="node1" class="node"><title>node1</title>
<ellipse fill="none" stroke="black" cx="559" cy="-1044" rx="41.897" ry="18"/>
<text text-anchor="middle" x="559" y="-1039.8" font-family="Courier,monospace" font-size="14.00">Client</text>
</g>
<!-- node3 -->
<g id="node2" class="node"><title>node3</title>
<polygon fill="none" stroke="black" points="588.007,-980 529.993,-980 529.993,-944 588.007,-944 588.007,-980"/>
<text text-anchor="middle" x="559" y="-957.8" font-family="Courier,monospace" font-size="14.00">HTTPS</text>
</g>
<!-- node1&#45;&gt;node3 -->
<g id="edge1" class="edge"><title>node1:s&#45;&gt;node3:n</title>
<path fill="none" stroke="black" d="M559,-1026C559,-1009.91 559,-1003.53 559,-991.226"/>
<polygon fill="black" stroke="black" points="562.5,-991 559,-981 555.5,-991 562.5,-991"/>
</g>
<!-- node18 -->
<g id="node10" class="node"><title>node18</title>
<polygon fill="none" stroke="black" points="592.409,-122 525.591,-122 525.591,-72 592.409,-72 592.409,-122"/>
<text text-anchor="middle" x="559" y="-106.8" font-family="Courier,monospace" font-size="14.00">Render</text>
<text text-anchor="middle" x="559" y="-92.8" font-family="Courier,monospace" font-size="14.00">the</text>
<text text-anchor="middle" x="559" y="-78.8" font-family="Courier,monospace" font-size="14.00">list</text>
</g>
<!-- node1&#45;&gt;node18 -->
<g id="edge27" class="edge"><title>node1&#45;&gt;node18</title>
<path fill="none" stroke="navy" d="M507.377,-1040.54C444.048,-1037.07 340.59,-1029.82 304,-1018 163.563,-972.649 17,-998.578 17,-851 17,-851 17,-851 17,-296 17,-226.482 -12.4257,-188.854 38,-141 73.344,-107.458 416.017,-99.9317 525.531,-98.3769"/>
<polygon fill="navy" stroke="navy" points="507.39,-1044.05 517.562,-1041.09 507.763,-1037.06 507.39,-1044.05"/>
</g>
<!-- node41 -->
<g id="node25" class="node"><title>node41</title>
<polygon fill="none" stroke="black" points="385,-980 331,-980 331,-944 385,-944 385,-980"/>
<text text-anchor="middle" x="358" y="-957.8" font-family="Courier,monospace" font-size="14.00">HTTP</text>
</g>
<!-- node1&#45;&gt;node41 -->
<g id="edge19" class="edge"><title>node1&#45;&gt;node41</title>
<path fill="none" stroke="navy" d="M517.519,-1041.05C474.045,-1038.29 409.287,-1031.93 389,-1018 379.038,-1011.16 371.907,-1000.01 367.017,-989.531"/>
<polygon fill="navy" stroke="navy" points="370.22,-988.12 363.138,-980.24 363.76,-990.816 370.22,-988.12"/>
</g>
<!-- node42 -->
<g id="node26" class="node"><title>node42</title>
<polygon fill="none" stroke="black" points="399.711,-868 316.289,-868 316.289,-832 399.711,-832 399.711,-868"/>
<text text-anchor="middle" x="358" y="-852.8" font-family="Courier,monospace" font-size="14.00">Redirect</text>
<text text-anchor="middle" x="358" y="-838.8" font-family="Courier,monospace" font-size="14.00">to HTTPS</text>
</g>
<!-- node1&#45;&gt;node42 -->
<g id="edge34" class="edge"><title>node1&#45;&gt;node42</title>
<path fill="none" stroke="navy" d="M507.155,-1041.15C441.15,-1038.24 334.151,-1031.5 322,-1018 283.507,-975.233 324.029,-901.38 345.915,-868.116"/>
<polygon fill="navy" stroke="navy" points="507.237,-1044.65 517.376,-1041.58 507.533,-1037.66 507.237,-1044.65"/>
</g>
<!-- node8 -->
<g id="node3" class="node"><title>node8</title>
<polygon fill="none" stroke="black" points="651.027,-868 466.973,-868 466.973,-832 651.027,-832 651.027,-868"/>
<text text-anchor="middle" x="559" y="-845.8" font-family="Courier,monospace" font-size="14.00">CookieAuthentication</text>
</g>
<!-- node3&#45;&gt;node8 -->
<g id="edge2" class="edge"><title>node3:s&#45;&gt;node8:n</title>
<path fill="none" stroke="black" d="M559,-944C559,-914.312 559,-904.455 559,-879.106"/>
<polygon fill="black" stroke="black" points="562.5,-879 559,-869 555.5,-879 562.5,-879"/>
</g>
<!-- node30 -->
<g id="node17" class="node"><title>node30</title>
<polygon fill="none" stroke="black" points="383.31,-597 308.69,-597 308.69,-547 383.31,-547 383.31,-597"/>
<text text-anchor="middle" x="346" y="-581.8" font-family="Courier,monospace" font-size="14.00">Decrypt</text>
<text text-anchor="middle" x="346" y="-567.8" font-family="Courier,monospace" font-size="14.00">auth</text>
<text text-anchor="middle" x="346" y="-553.8" font-family="Courier,monospace" font-size="14.00">token</text>
</g>
<!-- node3&#45;&gt;node30 -->
<g id="edge20" class="edge"><title>node3&#45;&gt;node30</title>
<path fill="none" stroke="navy" d="M529.959,-958.238C500.824,-954.831 458.767,-947.969 448,-936 360.618,-838.866 469.635,-762.217 414,-644 407.025,-629.178 395.722,-615.491 384.316,-604.17"/>
<polygon fill="navy" stroke="navy" points="386.514,-601.43 376.851,-597.084 381.695,-606.507 386.514,-601.43"/>
</g>
<!-- node9 -->
<g id="node4" class="node"><title>node9</title>
<polygon fill="none" stroke="black" points="642.725,-796 475.275,-796 475.275,-760 642.725,-760 642.725,-796"/>
<text text-anchor="middle" x="559" y="-773.8" font-family="Courier,monospace" font-size="14.00">AdminAuthorization</text>
</g>
<!-- node8&#45;&gt;node9 -->
<g id="edge3" class="edge"><title>node8:s&#45;&gt;node9:n</title>
<path fill="none" stroke="black" d="M559,-831C559,-819.455 559,-814.336 559,-806.105"/>
<polygon fill="black" stroke="black" points="562.5,-806 559,-796 555.5,-806 562.5,-806"/>
</g>
<!-- node20 -->
<g id="node11" class="node"><title>node20</title>
<polygon fill="none" stroke="black" points="736,-415 682,-415 682,-379 736,-379 736,-415"/>
<text text-anchor="middle" x="709" y="-392.8" font-family="Courier,monospace" font-size="14.00">DB</text>
</g>
<!-- node8&#45;&gt;node20 -->
<g id="edge21" class="edge"><title>node8&#45;&gt;node20</title>
<path fill="none" stroke="navy" d="M608.319,-826.894C623.439,-818.613 639.395,-808.203 652,-796 668.484,-780.041 670.996,-773.502 679,-752 724.511,-629.746 715.299,-467.871 710.721,-415.289"/>
<polygon fill="navy" stroke="navy" points="606.269,-824.017 599.049,-831.771 609.528,-830.212 606.269,-824.017"/>
</g>
<!-- node11 -->
<g id="node5" class="node"><title>node11</title>
<polygon fill="none" stroke="black" points="596.31,-694 521.69,-694 521.69,-644 596.31,-644 596.31,-694"/>
<text text-anchor="middle" x="559" y="-678.8" font-family="Courier,monospace" font-size="14.00">Get</text>
<text text-anchor="middle" x="559" y="-664.8" font-family="Courier,monospace" font-size="14.00">list of</text>
<text text-anchor="middle" x="559" y="-650.8" font-family="Courier,monospace" font-size="14.00">VMs</text>
</g>
<!-- node9&#45;&gt;node11 -->
<g id="edge4" class="edge"><title>node9:s&#45;&gt;node11:n</title>
<path fill="none" stroke="black" d="M559,-760C559,-734.835 559,-726.111 559,-705.185"/>
<polygon fill="black" stroke="black" points="562.5,-705 559,-695 555.5,-705 562.5,-705"/>
</g>
<!-- node9&#45;&gt;node20 -->
<g id="edge22" class="edge"><title>node9&#45;&gt;node20</title>
<path fill="none" stroke="navy" d="M652.593,-758.323C656.703,-756.381 659.955,-754.275 662,-752 684.851,-726.586 703.206,-482.324 707.857,-415.068"/>
<polygon fill="navy" stroke="navy" points="651.081,-755.156 643.062,-762.081 653.649,-761.668 651.081,-755.156"/>
</g>
<!-- node24 -->
<g id="node13" class="node"><title>node24</title>
<polygon fill="none" stroke="black" points="965.31,-694 890.69,-694 890.69,-644 965.31,-644 965.31,-694"/>
<text text-anchor="middle" x="928" y="-678.8" font-family="Courier,monospace" font-size="14.00">Get</text>
<text text-anchor="middle" x="928" y="-664.8" font-family="Courier,monospace" font-size="14.00">list of</text>
<text text-anchor="middle" x="928" y="-650.8" font-family="Courier,monospace" font-size="14.00">Users</text>
</g>
<!-- node9&#45;&gt;node24 -->
<g id="edge23" class="edge"><title>node9&#45;&gt;node24</title>
<path fill="none" stroke="navy" d="M642.705,-761.598C656.242,-758.685 670.057,-755.456 683,-752 752.935,-733.324 832.06,-705.608 880.995,-687.671"/>
<polygon fill="navy" stroke="navy" points="882.492,-690.849 890.667,-684.109 880.073,-684.281 882.492,-690.849"/>
</g>
<!-- node12 -->
<g id="node6" class="node"><title>node12</title>
<polygon fill="none" stroke="black" points="621.718,-590 496.282,-590 496.282,-554 621.718,-554 621.718,-590"/>
<text text-anchor="middle" x="559" y="-567.8" font-family="Courier,monospace" font-size="14.00">Authorization</text>
</g>
<!-- node11&#45;&gt;node12 -->
<g id="edge5" class="edge"><title>node11:s&#45;&gt;node12:n</title>
<path fill="none" stroke="black" d="M559,-644C559,-624.309 559,-616.963 559,-601.323"/>
<polygon fill="black" stroke="black" points="562.5,-601 559,-591 555.5,-601 562.5,-601"/>
</g>
<!-- node22 -->
<g id="node12" class="node"><title>node22</title>
<polygon fill="none" stroke="black" points="842.31,-590 767.69,-590 767.69,-554 842.31,-554 842.31,-590"/>
<text text-anchor="middle" x="805" y="-567.8" font-family="Courier,monospace" font-size="14.00">LibVirt</text>
</g>
<!-- node11&#45;&gt;node22 -->
<g id="edge24" class="edge"><title>node11&#45;&gt;node22</title>
<path fill="none" stroke="navy" d="M606.564,-654.457C624.133,-649.132 644.115,-642.693 662,-636 699.223,-622.07 740.674,-603.452 769.323,-590.073"/>
<polygon fill="navy" stroke="navy" points="605.11,-651.239 596.532,-657.457 607.116,-657.945 605.11,-651.239"/>
</g>
<!-- node15 -->
<g id="node7" class="node"><title>node15</title>
<polygon fill="none" stroke="black" points="592.409,-422 525.591,-422 525.591,-372 592.409,-372 592.409,-422"/>
<text text-anchor="middle" x="559" y="-406.8" font-family="Courier,monospace" font-size="14.00">Get VM</text>
<text text-anchor="middle" x="559" y="-392.8" font-family="Courier,monospace" font-size="14.00">VNC</text>
<text text-anchor="middle" x="559" y="-378.8" font-family="Courier,monospace" font-size="14.00">port</text>
</g>
<!-- node12&#45;&gt;node15 -->
<g id="edge6" class="edge"><title>node12:s&#45;&gt;node15:n</title>
<path fill="none" stroke="black" d="M559,-553C559,-498.72 559,-482.686 559,-433.037"/>
<polygon fill="black" stroke="black" points="562.5,-433 559,-423 555.5,-433 562.5,-433"/>
</g>
<!-- node12&#45;&gt;node20 -->
<g id="edge25" class="edge"><title>node12&#45;&gt;node20</title>
<path fill="none" stroke="navy" d="M630.79,-549.302C636.279,-546.033 641.446,-542.287 646,-538 682.484,-503.653 699.358,-444.25 705.749,-415.116"/>
<polygon fill="navy" stroke="navy" points="629.091,-546.241 621.938,-554.057 632.404,-552.408 629.091,-546.241"/>
</g>
<!-- node16 -->
<g id="node8" class="node"><title>node16</title>
<polygon fill="none" stroke="black" points="634.422,-336 483.578,-336 483.578,-258 634.422,-258 634.422,-336"/>
<text text-anchor="middle" x="559" y="-320.8" font-family="Courier,monospace" font-size="14.00">Create encrypted</text>
<text text-anchor="middle" x="559" y="-306.8" font-family="Courier,monospace" font-size="14.00">WS access token:</text>
<text text-anchor="middle" x="559" y="-292.8" font-family="Courier,monospace" font-size="14.00">IV + Encrypted</text>
<text text-anchor="middle" x="559" y="-278.8" font-family="Courier,monospace" font-size="14.00">VNC addr:port +</text>
<text text-anchor="middle" x="559" y="-264.8" font-family="Courier,monospace" font-size="14.00">Checksum</text>
</g>
<!-- node15&#45;&gt;node16 -->
<g id="edge7" class="edge"><title>node15:s&#45;&gt;node16:n</title>
<path fill="none" stroke="black" d="M559,-371C559,-359.455 559,-354.336 559,-346.105"/>
<polygon fill="black" stroke="black" points="562.5,-346 559,-336 555.5,-346 562.5,-346"/>
</g>
<!-- node17 -->
<g id="node9" class="node"><title>node17</title>
<polygon fill="none" stroke="black" points="609.014,-222 508.986,-222 508.986,-158 609.014,-158 609.014,-222"/>
<text text-anchor="middle" x="559" y="-206.8" font-family="Courier,monospace" font-size="14.00">add link</text>
<text text-anchor="middle" x="559" y="-192.8" font-family="Courier,monospace" font-size="14.00">to WS</text>
<text text-anchor="middle" x="559" y="-178.8" font-family="Courier,monospace" font-size="14.00">handler to</text>
<text text-anchor="middle" x="559" y="-164.8" font-family="Courier,monospace" font-size="14.00">the list</text>
</g>
<!-- node16&#45;&gt;node17 -->
<g id="edge8" class="edge"><title>node16:s&#45;&gt;node17:n</title>
<path fill="none" stroke="black" d="M559,-258C559,-246 559,-240.75 559,-232.125"/>
<polygon fill="black" stroke="black" points="562.5,-232 559,-222 555.5,-232 562.5,-232"/>
</g>
<!-- node39 -->
<g id="node24" class="node"><title>node39</title>
<polygon fill="none" stroke="black" points="276.31,-208 201.69,-208 201.69,-172 276.31,-172 276.31,-208"/>
<text text-anchor="middle" x="239" y="-192.8" font-family="Courier,monospace" font-size="14.00">Keys</text>
<text text-anchor="middle" x="239" y="-178.8" font-family="Courier,monospace" font-size="14.00">storage</text>
</g>
<!-- node16&#45;&gt;node39 -->
<g id="edge26" class="edge"><title>node16&#45;&gt;node39</title>
<path fill="none" stroke="navy" d="M473.863,-268.064C409.718,-247.017 324.848,-219.169 276.669,-203.36"/>
<polygon fill="navy" stroke="navy" points="472.977,-271.457 483.57,-271.249 475.159,-264.806 472.977,-271.457"/>
</g>
<!-- node17&#45;&gt;node18 -->
<g id="edge9" class="edge"><title>node17:s&#45;&gt;node18:n</title>
<path fill="none" stroke="black" d="M559,-157C559,-145.455 559,-140.336 559,-132.105"/>
<polygon fill="black" stroke="black" points="562.5,-132 559,-122 555.5,-132 562.5,-132"/>
</g>
<!-- node20&#45;&gt;node24 -->
<g id="edge28" class="edge"><title>node20&#45;&gt;node24</title>
<path fill="none" stroke="navy" d="M721.364,-415.238C744.751,-446.27 798.827,-510.829 862,-538 873.461,-542.929 965.498,-536.869 974,-546 1001.26,-575.275 992.524,-600.548 974,-636 973.392,-637.164 972.72,-638.294 971.992,-639.391"/>
<polygon fill="navy" stroke="navy" points="969.226,-637.242 965.472,-647.15 974.585,-641.746 969.226,-637.242"/>
</g>
<!-- node27 -->
<g id="node16" class="node"><title>node27</title>
<polygon fill="none" stroke="black" points="982.416,-322 873.584,-322 873.584,-272 982.416,-272 982.416,-322"/>
<text text-anchor="middle" x="928" y="-306.8" font-family="Courier,monospace" font-size="14.00">Process</text>
<text text-anchor="middle" x="928" y="-292.8" font-family="Courier,monospace" font-size="14.00">Permissions</text>
<text text-anchor="middle" x="928" y="-278.8" font-family="Courier,monospace" font-size="14.00">Edit form</text>
</g>
<!-- node20&#45;&gt;node27 -->
<g id="edge30" class="edge"><title>node20&#45;&gt;node27</title>
<path fill="none" stroke="navy" stroke-width="2" d="M745.701,-379.577C780.869,-363.84 834.354,-339.906 874.308,-322.026"/>
<polygon fill="navy" stroke="navy" stroke-width="2" points="743.992,-376.507 736.294,-383.786 746.851,-382.896 743.992,-376.507"/>
</g>
<!-- node25 -->
<g id="node14" class="node"><title>node25</title>
<polygon fill="none" stroke="black" points="965.31,-597 890.69,-597 890.69,-547 965.31,-547 965.31,-597"/>
<text text-anchor="middle" x="928" y="-581.8" font-family="Courier,monospace" font-size="14.00">Get</text>
<text text-anchor="middle" x="928" y="-567.8" font-family="Courier,monospace" font-size="14.00">list of</text>
<text text-anchor="middle" x="928" y="-553.8" font-family="Courier,monospace" font-size="14.00">VMs</text>
</g>
<!-- node22&#45;&gt;node25 -->
<g id="edge29" class="edge"><title>node22&#45;&gt;node25</title>
<path fill="none" stroke="navy" d="M842.477,-572C855.13,-572 867.783,-572 880.436,-572"/>
<polygon fill="navy" stroke="navy" points="880.584,-575.5 890.583,-572 880.583,-568.5 880.584,-575.5"/>
</g>
<!-- node24&#45;&gt;node25 -->
<g id="edge10" class="edge"><title>node24:s&#45;&gt;node25:n</title>
<path fill="none" stroke="black" d="M928,-644C928,-627.389 928,-620.9 928,-608.085"/>
<polygon fill="black" stroke="black" points="931.5,-608 928,-598 924.5,-608 931.5,-608"/>
</g>
<!-- node26 -->
<g id="node15" class="node"><title>node26</title>
<polygon fill="none" stroke="black" points="982.416,-422 873.584,-422 873.584,-372 982.416,-372 982.416,-422"/>
<text text-anchor="middle" x="928" y="-406.8" font-family="Courier,monospace" font-size="14.00">Render</text>
<text text-anchor="middle" x="928" y="-392.8" font-family="Courier,monospace" font-size="14.00">Permissions</text>
<text text-anchor="middle" x="928" y="-378.8" font-family="Courier,monospace" font-size="14.00">Edit form</text>
</g>
<!-- node25&#45;&gt;node26 -->
<g id="edge11" class="edge"><title>node25:s&#45;&gt;node26:n</title>
<path fill="none" stroke="black" d="M928,-546C928,-494.857 928,-479.599 928,-433.081"/>
<polygon fill="black" stroke="black" points="931.5,-433 928,-423 924.5,-433 931.5,-433"/>
</g>
<!-- node26&#45;&gt;node27 -->
<g id="edge12" class="edge"><title>node26:s&#45;&gt;node27:n</title>
<path fill="none" stroke="black" d="M928,-371C928,-353.5 928,-346.767 928,-333.136"/>
<polygon fill="black" stroke="black" points="931.5,-333 928,-323 924.5,-333 931.5,-333"/>
</g>
<!-- node31 -->
<g id="node18" class="node"><title>node31</title>
<polygon fill="none" stroke="black" points="391.613,-422 300.387,-422 300.387,-372 391.613,-372 391.613,-422"/>
<text text-anchor="middle" x="346" y="-406.8" font-family="Courier,monospace" font-size="14.00">Bind</text>
<text text-anchor="middle" x="346" y="-392.8" font-family="Courier,monospace" font-size="14.00">websocket</text>
<text text-anchor="middle" x="346" y="-378.8" font-family="Courier,monospace" font-size="14.00">to TCP</text>
</g>
<!-- node30&#45;&gt;node31 -->
<g id="edge13" class="edge"><title>node30:s&#45;&gt;node31:n</title>
<path fill="none" stroke="black" d="M346,-546C346,-494.857 346,-479.599 346,-433.081"/>
<polygon fill="black" stroke="black" points="349.5,-433 346,-423 342.5,-433 349.5,-433"/>
</g>
<!-- node30&#45;&gt;node39 -->
<g id="edge31" class="edge"><title>node30&#45;&gt;node39</title>
<path fill="none" stroke="navy" d="M391.585,-549.482C395.299,-546.128 398.557,-542.315 401,-538 462.345,-429.653 464.218,-359.425 392,-258 365.173,-220.324 312.382,-203.587 276.395,-196.323"/>
<polygon fill="navy" stroke="navy" points="389.236,-546.872 383.433,-555.737 393.497,-552.426 389.236,-546.872"/>
</g>
<!-- node32 -->
<g id="node19" class="node"><title>node32</title>
<polygon fill="none" stroke="black" points="383.31,-322 308.69,-322 308.69,-272 383.31,-272 383.31,-322"/>
<text text-anchor="middle" x="346" y="-306.8" font-family="Courier,monospace" font-size="14.00">Start</text>
<text text-anchor="middle" x="346" y="-292.8" font-family="Courier,monospace" font-size="14.00">the</text>
<text text-anchor="middle" x="346" y="-278.8" font-family="Courier,monospace" font-size="14.00">session</text>
</g>
<!-- node31&#45;&gt;node32 -->
<g id="edge14" class="edge"><title>node31:s&#45;&gt;node32:n</title>
<path fill="none" stroke="black" d="M346,-371C346,-353.5 346,-346.767 346,-333.136"/>
<polygon fill="black" stroke="black" points="349.5,-333 346,-323 342.5,-333 349.5,-333"/>
</g>
<!-- node35 -->
<g id="node20" class="node"><title>node35</title>
<polygon fill="none" stroke="black" points="182.416,-590 73.5842,-590 73.5842,-554 182.416,-554 182.416,-590"/>
<text text-anchor="middle" x="128" y="-574.8" font-family="Courier,monospace" font-size="14.00">set</text>
<text text-anchor="middle" x="128" y="-560.8" font-family="Courier,monospace" font-size="14.00">Key2 = Key1</text>
</g>
<!-- node36 -->
<g id="node21" class="node"><title>node36</title>
<polygon fill="none" stroke="black" points="178.014,-422 77.9863,-422 77.9863,-372 178.014,-372 178.014,-422"/>
<text text-anchor="middle" x="128" y="-406.8" font-family="Courier,monospace" font-size="14.00">generate</text>
<text text-anchor="middle" x="128" y="-392.8" font-family="Courier,monospace" font-size="14.00">new random</text>
<text text-anchor="middle" x="128" y="-378.8" font-family="Courier,monospace" font-size="14.00">Key1</text>
</g>
<!-- node35&#45;&gt;node36 -->
<g id="edge15" class="edge"><title>node35:s&#45;&gt;node36:n</title>
<path fill="none" stroke="black" d="M128,-553C128,-498.72 128,-482.686 128,-433.037"/>
<polygon fill="black" stroke="black" points="131.5,-433 128,-423 124.5,-433 131.5,-433"/>
</g>
<!-- node38 -->
<g id="node23" class="node"><title>node38</title>
<polygon fill="none" stroke="black" points="169.711,-215 86.2888,-215 86.2888,-165 169.711,-165 169.711,-215"/>
<text text-anchor="middle" x="128" y="-199.8" font-family="Courier,monospace" font-size="14.00">sleep</text>
<text text-anchor="middle" x="128" y="-185.8" font-family="Courier,monospace" font-size="14.00">for some</text>
<text text-anchor="middle" x="128" y="-171.8" font-family="Courier,monospace" font-size="14.00">time</text>
</g>
<!-- node35&#45;&gt;node38 -->
<g id="edge33" class="edge"><title>node35&#45;&gt;node38</title>
<path fill="none" stroke="navy" d="M76.8089,-547.51C73.8111,-544.662 71.1478,-541.502 69,-538 52.7266,-511.47 49.0894,-286.755 61,-258 67.9247,-241.282 81.2688,-226.561 94.2371,-215.207"/>
<polygon fill="navy" stroke="navy" points="74.8565,-550.431 84.8462,-553.961 79.238,-544.972 74.8565,-550.431"/>
</g>
<!-- node37 -->
<g id="node22" class="node"><title>node37</title>
<polygon fill="none" stroke="black" points="186.317,-322 69.6834,-322 69.6834,-272 186.317,-272 186.317,-322"/>
<text text-anchor="middle" x="128" y="-306.8" font-family="Courier,monospace" font-size="14.00">store</text>
<text text-anchor="middle" x="128" y="-292.8" font-family="Courier,monospace" font-size="14.00">updated keys</text>
<text text-anchor="middle" x="128" y="-278.8" font-family="Courier,monospace" font-size="14.00">to storage</text>
</g>
<!-- node36&#45;&gt;node37 -->
<g id="edge16" class="edge"><title>node36:s&#45;&gt;node37:n</title>
<path fill="none" stroke="black" d="M128,-371C128,-353.5 128,-346.767 128,-333.136"/>
<polygon fill="black" stroke="black" points="131.5,-333 128,-323 124.5,-333 131.5,-333"/>
</g>
<!-- node37&#45;&gt;node38 -->
<g id="edge17" class="edge"><title>node37:s&#45;&gt;node38:n</title>
<path fill="none" stroke="black" d="M128,-271C128,-250.375 128,-242.802 128,-226.255"/>
<polygon fill="black" stroke="black" points="131.5,-226 128,-216 124.5,-226 131.5,-226"/>
</g>
<!-- node37&#45;&gt;node39 -->
<g id="edge32" class="edge"><title>node37&#45;&gt;node39</title>
<path fill="none" stroke="navy" stroke-width="2" d="M153.466,-271.911C171.499,-254.852 195.587,-232.066 213.605,-215.022"/>
<polygon fill="navy" stroke="navy" stroke-width="2" points="216.06,-217.518 220.92,-208.103 211.25,-212.432 216.06,-217.518"/>
</g>
<!-- node41&#45;&gt;node42 -->
<g id="edge18" class="edge"><title>node41:s&#45;&gt;node42:n</title>
<path fill="none" stroke="black" d="M358,-944C358,-914.312 358,-904.455 358,-879.106"/>
<polygon fill="black" stroke="black" points="361.5,-879 358,-869 354.5,-879 361.5,-879"/>
</g>
</g>
</svg>
